<svg xmlns="http://www.w3.org/2000/svg" width="711" height="610" viewBox="0 0 711 610"><g><g><path fill="#bb9c66" d="M181 0a5 5 0 1 1 0 10 5 5 0 0 1 0-10zm350 0a5 5 0 1 1 0 10 5 5 0 0 1 0-10zM181 300a5 5 0 1 1 0 10 5 5 0 0 1 0-10zm350 0a5 5 0 1 1 0 10 5 5 0 0 1 0-10zM181 600a5 5 0 1 1 0 10 5 5 0 0 1 0-10zm350 0a5 5 0 1 1 0 10 5 5 0 0 1 0-10zm175-450a5 5 0 1 1 0 10 5 5 0 0 1 0-10zm-350 0a5 5 0 1 1 0 10 5 5 0 0 1 0-10zM5 150a5 5 0 1 1 0 10 5 5 0 0 1 0-10zm701 300a5 5 0 1 1 0 10 5 5 0 0 1 0-10zm-350 0a5 5 0 1 1 0 10 5 5 0 0 1 0-10zM5 450a5 5 0 1 1 0 10 5 5 0 0 1 0-10z"/></g></g></svg>