<svg xmlns="http://www.w3.org/2000/svg" width="375" height="924" viewBox="0 0 375 924"><defs><clipPath id="txtsa"><path fill="#fff" d="M363 300.007L374.993 312 363 323.994 351.007 312zm-351 0L23.993 312 12 323.994.007 312zm351 300L374.993 612 363 623.994 351.007 612zm-351 0L23.993 612 12 623.994.007 612zm351 300L374.993 912 363 923.994 351.007 912zm-351 0L23.993 912 12 923.994.007 912zm351-900L374.993 12 363 23.994 351.007 12zm-351 0L23.993 12 12 23.994.007 12z"/></clipPath></defs><g><g><path fill="none" stroke="#bb9c66" stroke-miterlimit="20" stroke-width="2" d="M363 300.007L374.993 312 363 323.994 351.007 312zm-351 0L23.993 312 12 323.994.007 312zm351 300L374.993 612 363 623.994 351.007 612zm-351 0L23.993 612 12 623.994.007 612zm351 300L374.993 912 363 923.994 351.007 912zm-351 0L23.993 912 12 923.994.007 912zm351-900L374.993 12 363 23.994 351.007 12zm-351 0L23.993 12 12 23.994.007 12z" clip-path="url(&quot;#txtsa&quot;)"/></g></g></svg>